<?xml version="1.0" encoding="utf-8"?>
<!-- Generator: Adobe Illustrator 16.0.0, SVG Export Plug-In . SVG Version: 6.00 Build 0)  -->
<!DOCTYPE svg PUBLIC "-//W3C//DTD SVG 1.1 Tiny//EN" "http://www.w3.org/Graphics/SVG/1.1/DTD/svg11-tiny.dtd">
<svg version="1.1" baseProfile="tiny" id="Layer_1" xmlns="http://www.w3.org/2000/svg" xmlns:xlink="http://www.w3.org/1999/xlink"
	 x="0px" y="0px" width="350.82px" height="63.22px" viewBox="0 0 350.82 63.22" xml:space="preserve">
<path fill="#FFFFFF" d="M32.3,53.3l0-3.54H32c-2.86,0-3.77-0.88-3.77-3.62V30.32c0-0.62,1.17-0.62,1.54,0
	c2.94,4.65,10.07,16,11.49,18.29c0.1,0.17,0.61,1.08,1.24,0.08c1.34-2.14,8.57-13.68,11.56-18.37c0.42-0.63,1.58-0.63,1.58,0
	c0,4.26-0.01,15.82-0.01,15.82c0,2.81-0.85,3.62-3.79,3.62h-0.29v3.41c6.42,0.49,12.49,1.5,17.99,2.97v-6.38h-0.29
	c-2.86,0-3.69-0.81-3.69-3.62V24.36c0-2.84,0.79-3.62,3.69-3.62h0.29v-5.45h-0.12H52.9c0,0-8.32,14.83-10.55,18.75
	c-0.21,0.37-0.69,0.37-0.89,0.01C39.28,30.14,31,15.29,31,15.29H14.29l0,5.45h0.3c2.89,0,3.68,0.78,3.68,3.62v21.77
	c0,2.81-0.83,3.62-3.68,3.62h-0.3l0,6.77c5.48-1.55,11.57-2.65,17.96-3.23C32.27,53.3,32.3,53.3,32.3,53.3"/>
<path fill="#EDAA00" d="M84.09,61.9c-4.08-2.36-9.02-4.3-14.56-5.77c-5.5-1.47-11.57-2.48-17.99-2.97
	c-2.99-0.22-6.04-0.34-9.15-0.33c-3.43,0.01-6.83,0.17-10.15,0.47c-6.39,0.58-12.49,1.67-17.96,3.22
	c-5.4,1.53-10.21,3.49-14.09,5.82c-0.18,0.11-0.25,0.32-0.17,0.5c0.08,0.18,0.29,0.29,0.5,0.25c12.69-2.75,26.81-4.14,41.95-4.14
	c14.75,0,29.42,1.31,41.29,3.7c0.22,0.04,0.44-0.08,0.51-0.27C84.35,62.23,84.28,62.01,84.09,61.9"/>
<path fill="#EDAA00" d="M46.2,8.15c-0.04,0.02-0.12,0.06-0.14,0.17c0,0.01,0,0.02,0,0.02c-0.03,1.95-5.78,11.44-5.78,11.44
	c-2.32,3.88-0.95,6.79,1.4,10.78c0.03,0.05,0.08,0.08,0.14,0.08c0.06,0,0.11-0.03,0.14-0.08l6.79-11.67
	c2.03-3.65,0.15-6.72-1.67-9.7c0,0-0.6-0.99-0.62-1C46.39,8.15,46.29,8.12,46.2,8.15"/>
<path fill="#EDD57C" d="M41.76,0c-0.06,0-0.11,0.03-0.14,0.08l-6.79,11.67c-2.03,3.65-0.15,6.72,1.67,9.7c0,0,0.6,0.99,0.62,1
	c0.06,0.04,0.16,0.08,0.25,0.05c0.04-0.02,0.12-0.06,0.14-0.18c0-0.01,0-0.01,0-0.02c0.02-1.95,5.78-11.44,5.78-11.44
	c2.32-3.88,0.96-6.79-1.39-10.78C41.87,0.03,41.81,0,41.76,0"/>
<path fill="#FFFFFF" d="M147.21,26.39c0,7.34-4.39,11.55-11.87,11.55c-7.47,0-11.86-4.21-11.86-11.55c0-7.34,4.39-11.51,11.86-11.51
	C142.81,14.88,147.21,19.05,147.21,26.39 M129.02,26.35c0,5.72,2.31,8.74,6.32,8.74c4.04,0,6.32-2.99,6.32-8.74
	c0-5.76-2.24-8.78-6.32-8.78C131.29,17.58,129.02,20.6,129.02,26.35"/>
<path fill="#FFFFFF" d="M156.55,15.38l8.17,16.29c0,0,0.17,0.37,0.54,0.27c0.33-0.09,0.33-0.44,0.33-0.44l-0.1-11.4
	c0-1.98-0.46-2.81-2.47-2.81h-0.46v-1.9c1.66,0.04,8.28,0.04,9.98,0v1.9h-0.46c-1.96,0-2.47,0.83-2.47,2.81v17.34h-6.55l-8.26-15.52
	c0,0-0.16-0.31-0.5-0.23c-0.34,0.08-0.36,0.41-0.36,0.41l0.15,10.6c0,1.98,0.46,2.84,2.46,2.84h0.46v1.91
	c-1.65-0.07-8.28-0.07-9.98,0v-1.91h0.46c1.97,0,2.51-0.86,2.51-2.84V20.09c0-1.98-0.54-2.81-2.51-2.81h-0.46v-1.9H156.55z"/>
<path fill="#FFFFFF" d="M194.8,15.38v6.65h-2.54v-0.58c0-2.84-0.85-3.42-3.7-3.42h-1.7v14.64c0,1.98,0.5,2.84,2.46,2.84h0.81v1.91
	c-1.96-0.07-9.79-0.07-11.75,0v-1.91h0.81c1.96,0,2.46-0.86,2.46-2.84V18.04h-2.08c-2.58,0-3.47,0.65-3.47,3.06
	c0,0.29,0,0.58,0.04,0.94h-2.43v-6.65H194.8z"/>
<path fill="#FFFFFF" d="M233.88,15.38v1.9h0.46c2,0,2.47,0.83,2.47,2.81l0.1,11.4c0,0,0,0.35-0.33,0.44
	c-0.38,0.1-0.55-0.27-0.55-0.27l-8.17-16.29h-9.51v1.9h0.46c1.96,0,2.5,0.83,2.5,2.81v12.59c0,1.98-0.54,2.84-2.5,2.84h0
	c-1.85-0.18-2.39-1.44-3.24-3.49l-6.82-16.66h-6.32l-7.13,16.76c-0.92,2.19-1.69,3.31-3.24,3.38v1.91c1.62-0.07,8.51-0.07,10.33,0
	v-1.91c-2.04-0.11-2.81-0.29-2.81-1.58c0-0.4,1.04-3.5,1.04-3.5l9.01,0c0,0,1.12,3.14,1.12,3.46c0,1.19-0.85,1.55-2.93,1.62v1.91
	c0.84-0.03,20.01-0.02,20.5,0v-1.91h-0.46c-2,0-2.46-0.86-2.46-2.84l-0.07-10.6c0,0,0.02-0.33,0.36-0.41
	c0.34-0.08,0.5,0.23,0.5,0.23l8.19,15.52h6.55V20.09c0-1.98,0.5-2.81,2.47-2.81h0.46v-1.9H233.88z M201.7,27.67l3.18-8.43
	c0,0,0.09-0.27,0.42-0.27s0.42,0.27,0.42,0.27l2.95,8.47L201.7,27.67z"/>
<path fill="#FFFFFF" d="M259.08,15.38l6.82,16.66c0.85,2.05,1.39,3.31,3.24,3.49v1.91c-1.81-0.07-9.13-0.07-10.98,0v-1.91
	c2.08-0.07,2.93-0.43,2.93-1.62c0-0.32-1.04-3.48-1.04-3.48l-9.05,0c0,0-1.08,3.13-1.08,3.52c0,1.29,0.77,1.47,2.81,1.58v1.91
	c-1.81-0.07-8.71-0.07-10.33,0v-1.91c1.54-0.07,2.31-1.19,3.24-3.38l7.13-16.76H259.08z M255.21,19.24l-3.24,8.46h7.02l-2.93-8.47
	c0,0-0.09-0.27-0.42-0.27C255.3,18.97,255.21,19.24,255.21,19.24"/>
<path fill="#FFFFFF" d="M108.04,34.02c-0.33,0-0.56-0.42-0.56-0.42l-6.42-10.98c0,0-0.31-0.54-0.62-0.54c-0.4,0-0.4,0.53-0.4,0.53
	V32.7c0,1.98,0.5,2.84,2.47,2.84h0.46v1.91c-1.58-0.07-8.32-0.07-10.09,0v-1.91h0.46c2,0,2.43-0.86,2.47-2.84l0.23-12.77
	c0-1.83-0.58-2.63-2.5-2.63h-0.46v-1.91c1.73,0.04,7.96,0.04,9.69,0l4.87,10.19c0,0,0.1,0.26,0.42,0.26c0.32,0,0.4-0.25,0.4-0.25
	l5.24-10.21c1.5,0.04,7.53,0.04,9.42,0v1.91h-0.5c-1.93,0-2.47,0.75-2.47,2.59l0.23,12.81c0.04,1.98,0.42,2.84,2.47,2.84h0.46v1.91
	c-1.77-0.07-8.55-0.07-10.21,0v-1.91h0.5c1.96,0,2.46-0.86,2.46-2.84V22.51c0,0,0.05-0.54-0.39-0.54c-0.32,0-0.61,0.54-0.61,0.54
	l-6.46,11.07C108.61,33.58,108.38,34.02,108.04,34.02"/>
<path fill="#FFFFFF" d="M121.16,43.27l3.69,9.01c0.46,1.11,0.75,1.79,1.75,1.89v1.03c-0.98-0.04-1.98-0.04-2.96-0.04
	c-1,0-1.98,0-2.98,0.04v-1.03c1.13-0.04,1.58-0.23,1.58-0.88c0-0.18-0.06-0.47-0.21-0.89l-0.46-1.27h-4.69l-0.54,1.52
	c-0.08,0.24-0.15,0.45-0.15,0.66c0,0.7,0.41,0.8,1.52,0.86v1.03c-0.98-0.04-1.94-0.04-2.88-0.04c-0.94,0-1.84,0-2.57,0.04v-1.03
	c0.7-0.04,1.12-0.64,1.61-1.83l3.86-9.07H121.16z M119.06,45.36l-1.66,4.33h3.6l-1.49-4.33c0,0-0.05-0.15-0.23-0.15
	C119.11,45.21,119.06,45.36,119.06,45.36"/>
<path fill="#FFFFFF" d="M101.84,46.76h-1.44c0.02-0.14,0.02-0.27,0.02-0.39c0-1.48-0.95-2.13-2.67-2.13c-1.5,0-2.43,0.72-2.43,1.75
	c0,0.83,0.5,1.3,1.6,1.71l2.64,0.99c1.81,0.68,2.7,1.71,2.7,3.14c0,2.25-1.81,3.55-5.17,3.55c-1.48,0-3.01-0.17-4.57-0.5v-3.36h1.52
	c0,0.1-0.02,0.2-0.02,0.27c0,1.53,1,2.31,2.93,2.31c1.56,0,2.41-0.64,2.41-1.8c0-0.83-0.44-1.26-1.45-1.67l-2.43-0.97
	c-2.01-0.82-3.01-1.69-3.01-3.24c0-2.13,1.79-3.47,5.05-3.47c1.33,0,2.78,0.19,4.34,0.54V46.76z"/>
<path fill="#FFFFFF" d="M237.5,46.97h-1.41c0.02-0.13,0.02-0.27,0.02-0.38c0-1.45-0.93-2.1-2.62-2.1c-1.46,0-2.38,0.71-2.38,1.72
	c0,0.82,0.49,1.28,1.57,1.68l2.58,0.97c1.77,0.67,2.64,1.68,2.64,3.1c0,2.22-1.77,3.5-5.06,3.5c-1.45,0-2.95-0.17-4.47-0.5v-3.3
	h1.48c0,0.09-0.02,0.19-0.02,0.27c0,1.51,0.97,2.28,2.86,2.28c1.53,0,2.36-0.63,2.36-1.78c0-0.82-0.43-1.24-1.42-1.64l-2.38-0.96
	c-1.97-0.8-2.95-1.66-2.95-3.19c0-2.1,1.75-3.42,4.94-3.42c1.3,0,2.73,0.19,4.25,0.54V46.97z"/>
<path fill="#FFFFFF" d="M106.43,43.42h3.49c0.43,0,1.76-0.04,3.97-0.04v3.38h-1.37v-0.12c0-1.52-0.45-1.83-1.98-1.83h-0.91v7.85
	c0,1.06,0.27,1.52,1.32,1.52h0.3v1.02c-0.92-0.04-1.97-0.04-3-0.04c-1.05,0-2.11,0-3.16,0.04v-1.02h0.44c1.05,0,1.32-0.46,1.32-1.52
	v-7.85h-1.12c-1.38,0-1.86,0.35-1.86,1.64c0,0.15,0,0.31,0.02,0.31h-1.3v-3.38C104.73,43.38,106.01,43.42,106.43,43.42"/>
<path fill="#FFFFFF" d="M128.81,43.42h3.49c0.43,0,1.75-0.04,3.97-0.04v3.4h-1.36v-0.14c0-1.52-0.46-1.83-1.98-1.83h-0.91v7.85
	c0,1.06,0.27,1.52,1.32,1.52h0.43v1.02c-1.05-0.04-2.11-0.04-3.14-0.04c-1.05,0-1.87,0-2.92,0.04v-1.02h0.2
	c1.05,0,1.32-0.46,1.32-1.52v-7.85h-1.12c-1.38,0-1.86,0.35-1.86,1.64c0,0.15,0,0.31,0.02,0.33h-1.3v-3.4
	C127.12,43.38,128.4,43.42,128.81,43.42"/>
<path fill="#FFFFFF" d="M147.17,43.42v3.26h-1.18v-0.52c0-1.12-0.68-1.35-2.21-1.35h-2.54v3.69h0.72c1.37,0,1.72-0.23,1.74-1.54
	h1.12v4.28h-1.12c-0.06-1.27-0.37-1.5-1.65-1.5h-0.8v4.09h2.31c2.07,0,2.52-0.25,2.56-2.32h1.16v3.71H136.9v-1.02h0.25
	c1.12,0,1.32-0.5,1.32-1.52v-6.75c0-1.06-0.27-1.5-1.32-1.5h-0.25v-0.98H147.17z"/>
<path fill="#FFFFFF" d="M159.95,43.38v1.02h-0.25c-1.14,0-1.34,0.38-1.34,1.5v5.19c0,1.85,0.64,2.72,2.58,2.72
	c1.88,0,2.66-0.89,2.66-2.76v-5.15c0-1.06-0.27-1.5-1.32-1.5h-0.25v-1.02c0.89,0.02,4.28,0.02,5.1,0v1.02h-0.31
	c-0.75,0-1.03,0.48-1.03,1.5v4.98c0,3.17-1.43,4.59-5.06,4.59c-3.41,0-5.08-1.37-5.08-4.11v-5.46c0-1-0.19-1.5-1.01-1.5h-0.25v-1.02
	H159.95z"/>
<path fill="#FFFFFF" d="M188.87,43.38v1.02h-0.27c-1.05,0-1.32,0.44-1.32,1.5v6.75c0,1.06,0.27,1.52,1.32,1.52h0.27v1.02
	c-0.99-0.04-4.94-0.04-5.93,0v-1.02h0.25c1.05,0,1.32-0.46,1.32-1.52v-6.75c0-1.06-0.27-1.5-1.32-1.5h-0.25v-1.02H188.87z"/>
<path fill="#FFFFFF" d="M202.71,43.39v-0.04c-0.74,0.02-4.17,0.02-5.17,0v1.02c1.02,0,1.49,0.19,1.49,0.7
	c0,0.13-2.52,7.38-2.52,7.38s-0.07,0.15-0.22,0.15s-0.24-0.15-0.24-0.15s-2.68-7.29-2.68-7.43c0-0.54,0.44-0.6,1.49-0.64v-1.02
	c-1.14,0.02-4.71,0.02-5.35,0v1.02c0.7,0.06,0.99,0.46,1.32,1.31l3.84,9.68h3l3.72-9.76c0.27-0.73,0.58-1.1,1.32-1.23V43.39z"/>
<path fill="#FFFFFF" d="M220.69,43.38c3.61,0,5.31,0.85,5.31,3.18c0,1.45-0.78,2.39-2.23,2.72c1.18,0.15,1.47,0.71,1.82,1.93
	c0.33,1.2,0.48,2.07,0.85,2.47c0.22,0.24,0.49,0.39,0.84,0.46c0-0.02,0,1.07,0,1.07h-3.21c-0.77-1.64-0.83-3.13-1.22-4.15
	c-0.29-0.77-0.93-1.08-2.07-1.08h-0.99v2.68c0,1.06,0.27,1.52,1.32,1.52h0.27v1.02c-0.99-0.04-4.94-0.04-5.93,0v-1.02h0.25
	c1.05,0,1.32-0.46,1.32-1.52v-6.75c0-1.06-0.27-1.5-1.32-1.5h-0.25v-1.02H220.69z M219.78,48.72h0.95c1.8,0,2.63-0.5,2.63-1.91
	c0-1.46-0.78-2.01-2.52-2.01h-1.05V48.72z"/>
<path fill="#FFFFFF" d="M244.89,43.38v1.02h-0.27c-1.05,0-1.32,0.44-1.32,1.5v6.75c0,1.06,0.27,1.52,1.32,1.52h0.27v1.02
	c-0.99-0.04-4.94-0.04-5.93,0v-1.02h0.24c1.06,0,1.32-0.46,1.32-1.52v-6.75c0-1.06-0.27-1.5-1.32-1.5h-0.24v-1.02H244.89z"/>
<path fill="#FFFFFF" d="M256.96,43.38v3.37h-1.36c0,0.09,0-0.01,0-0.11c0-1.52-0.46-1.83-1.98-1.83h-0.91v7.85
	c0,1.06,0.27,1.52,1.32,1.52h0.43v1.02c-1.05-0.04-2.11-0.04-3.14-0.04c-1.05,0-2.11,0-3.16,0.04v-1.02h0.43
	c1.05,0,1.32-0.46,1.32-1.52v-7.85h-1.11c-1.38,0-1.86,0.35-1.86,1.64c0,0.15,0,0.31,0.02,0.3h-1.3v-3.37H256.96z"/>
<path fill="#FFFFFF" d="M262.63,43.38v1.02h-0.1c-0.66,0-0.95,0.17-0.95,0.56c0,0.19,1.63,3.32,1.63,3.32s0.09,0.15,0.23,0.15
	c0.14,0,0.23-0.14,0.23-0.14s1.61-3.07,1.61-3.26c0-0.45-0.31-0.62-1.01-0.62v-1.02c0.89,0.02,4.23,0.02,5.04,0v1.02h-0.08
	c-0.66,0-1.05,0.44-1.61,1.29l-3.08,4.71v2.39c0,1.02,0.21,1.39,1.41,1.39h0.29v1.02c-0.97-0.04-4.98-0.04-5.99,0v-1.02h0.29
	c1.18,0,1.41-0.37,1.41-1.39v-2.43l-2.89-4.69c-0.49-0.79-0.91-1.23-1.75-1.27v-1.02H262.63z"/>
<path fill="#FFFFFF" d="M173.1,43.4l4.42,8.81c0,0,0.09,0.2,0.3,0.14c0.18-0.05,0.17-0.24,0.17-0.24l-0.05-6.17
	c0-1.07-0.25-1.52-1.33-1.52h-0.25V43.4c0.9,0.02,4.48,0.02,5.4,0v1.03h-0.25c-1.06,0-1.33,0.45-1.33,1.52v9.38h-3.54l-4.43-8.8
	c0,0-0.08-0.17-0.27-0.13c-0.18,0.04-0.2,0.22-0.2,0.22l0.04,6.14c0,1.07,0.25,1.54,1.33,1.54h0.25v1.03c-0.9-0.04-4.48-0.04-5.4,0
	V54.3h0.25c1.06,0,1.35-0.47,1.35-1.54v-6.82c0-1.07-0.29-1.52-1.35-1.52h-0.25V43.4H173.1z"/>
<path fill="#FFFFFF" d="M213.57,43.42v3.26h-1.18v-0.52c0-1.12-0.68-1.35-2.21-1.35h-2.54v3.69h0.72c1.37,0,1.71-0.23,1.74-1.54
	h1.12v4.28h-1.12c-0.06-1.27-0.37-1.5-1.65-1.5h-0.8v4.09h2.31c2.07,0,2.52-0.25,2.56-2.32h1.16v3.71H203.3v-1.02h0.25
	c1.12,0,1.32-0.5,1.32-1.52v-6.75c0-1.06-0.27-1.5-1.32-1.5h-0.25v-0.98H213.57z"/>
<path fill="#EDAA00" d="M308.74,41.73v0.78c0.54,0,0.77,0.13,0.77,0.47c0,0.15-0.06,0.35-0.17,0.56l-1.23,2.25l-1.23-2.33
	c-0.11-0.21-0.19-0.38-0.19-0.53c0-0.29,0.22-0.43,0.73-0.43h0.08v-0.78c-0.71,0.02-3.44,0.02-4.08,0v0.78
	c0.65,0.03,0.96,0.37,1.34,0.97l2.21,3.58v1.85c0,0.78-0.17,1.06-1.07,1.06h-0.22v0.78c0.77-0.03,3.83-0.03,4.57,0v-0.78h-0.22
	c-0.91,0-1.07-0.28-1.07-1.06v-1.83l2.35-3.59c0.43-0.65,0.72-0.99,1.23-0.99h0.06v-0.78C311.97,41.75,309.42,41.75,308.74,41.73"/>
<path fill="#EDAA00" d="M318.31,49.7h-1.76v-3.12h0.61c0.98,0,1.21,0.18,1.26,1.15h0.85v-3.27h-0.85c-0.02,1-0.28,1.18-1.32,1.18
	h-0.55v-2.81h1.94c1.17,0,1.69,0.18,1.69,1.03v0.4h0.9v-2.49h-7.83v0.75h0.19c0.8,0,1.01,0.34,1.01,1.15v5.15
	c0,0.78-0.16,1.16-1.01,1.16h-0.19v0.78h7.91v-2.83h-0.88C320.23,49.5,319.88,49.7,318.31,49.7"/>
<path fill="#EDAA00" d="M341.55,49.59c-0.28-0.31-0.39-0.97-0.65-1.88c-0.27-0.93-0.49-1.35-1.39-1.47c1.1-0.25,1.7-0.97,1.7-2.08
	c0-1.78-1.29-2.43-4.05-2.43h-4v0.78h0.19c0.8,0,1.01,0.34,1.01,1.15v5.15c0,0.81-0.2,1.16-1.01,1.16l-0.66,0.01v-0.01
	c-0.76-0.07-0.98-0.59-1.32-1.43l-2.79-6.81H326l-2.92,6.86c-0.38,0.9-0.69,1.35-1.32,1.38v0.78c0.66-0.03,3.48-0.03,4.22,0v-0.78
	c-0.84-0.04-1.15-0.12-1.15-0.65c0-0.16,0.52-1.65,0.52-1.65h3.55c0,0,0.5,1.5,0.5,1.63c0,0.49-0.35,0.63-1.2,0.66v0.78
	c0.76-0.03,8.73-0.03,9.49,0v-0.78h-0.21c-0.8,0-1.01-0.35-1.01-1.16v-2.05h0.76c0.87,0,1.36,0.24,1.58,0.83
	c0.3,0.78,0.35,1.91,0.93,3.16h2.9v-0.78h-0.08C342.12,49.98,341.79,49.86,341.55,49.59 M325.74,46.59l1.43-3.75l1.29,3.75H325.74z
	 M337.2,45.81h-0.72v-2.99h0.8c1.32,0,1.92,0.41,1.92,1.53C339.2,45.43,338.57,45.81,337.2,45.81"/>
<path fill="#EDAA00" d="M348.7,45.88l-2-0.75c-0.83-0.31-1.21-0.66-1.21-1.29c0-0.78,0.71-1.33,1.84-1.33c1.31,0,1.91,0.5,1.91,1.62
	c0,0.09,0,0.19-0.02,0.29h1.21v-2.49c-1.18-0.27-2.29-0.41-3.29-0.41c-2.47,0-3.83,1.02-3.83,2.63c0,1.18,0.76,1.84,2.29,2.46
	l1.84,0.74c0.77,0.31,1.1,0.63,1.1,1.27c0,0.88-0.65,1.37-1.83,1.37c-1.46,0-2.22-0.59-2.22-1.75c0-0.06,0.02-0.13,0.02-0.21h-1.15
	v2.55c1.18,0.25,2.35,0.38,3.47,0.38c2.55,0,3.92-0.99,3.92-2.69C350.75,47.18,350.07,46.4,348.7,45.88"/>
<polygon fill="#EDAA00" points="312.58,41.74 313.24,41.76 313.25,42.52 312.55,42.51 "/>
<path fill="#FFFFFF" d="M310.84,19.1v15.4c0,1.81,0.18,2.61,2.02,2.61h1.31v2.2c-1.87-0.07-3.52-0.07-5.39-0.07
	c-1.87,0-3.74,0-5.65,0.07v-2.2h1.34c1.8,0,2.05-0.79,2.05-2.61V22.56c-1.45,1.09-2.72,1.98-4.24,2.67V21.8
	c1.62-0.79,3.25-1.68,4.77-2.7H310.84z"/>
<path fill="#FFFFFF" d="M317.69,32.78c0.81-1.45,2.47-2.67,4.91-4.09l2.12-1.22c2.19-1.25,3.35-1.78,3.35-3.46
	c0-1.88-1.2-2.94-3.82-2.94c-2.86,0-4.06,0.89-4.06,3.53v0.33h-2.75v-5.44c2.15-0.59,4.31-0.86,6.5-0.86c5.51,0,8.4,2.01,8.4,5.74
	c0,1.94-0.78,3.4-2.93,4.68l-3.5,2.11c-2.72,1.62-4.34,2.38-4.34,4.65c0,0.26,0.03,0.53,0.07,0.82h3.68c3.11,0,3.92-0.43,3.92-3.6
	h2.75v6.26H316.8C316.8,36.11,317.02,33.97,317.69,32.78"/>
<path fill="#FFFFFF" d="M349.97,19.1v2.9h-9.64v4.29c1.02-0.63,2.19-0.86,3.6-0.86c4.48,0,6.89,2.8,6.89,6.99
	c0,4.85-2.86,7.35-8.44,7.35c-2.19,0-4.45-0.33-6.71-1.02v-5.34h2.86v0.23c0,2.64,1.27,3.76,3.78,3.76c2.86,0,3.82-1.42,3.82-4.59
	c0-3.03-1.24-4.62-3.89-4.62c-1.73,0-2.82,0.69-3.39,2.11h-2.79V19.1H349.97z"/>
<line fill="none" stroke="#FFFFFF" stroke-width="0.75" stroke-miterlimit="10" x1="287.26" y1="4.97" x2="287.26" y2="63.22"/>
</svg>
